<?xml version="1.0" encoding="iso-8859-1"?>
<!-- Uploaded to: SVG Repo, www.svgrepo.com, Generator: SVG Repo Mixer Tools -->
<svg version="1.1" id="Layer_1" xmlns="http://www.w3.org/2000/svg" xmlns:xlink="http://www.w3.org/1999/xlink" 
	 viewBox="0 0 500 500" xml:space="preserve">
<path style="fill:#EDC654;" d="M4,41.6v304c0,7.6,6.4,15.2,14,15.2h468c7.6,0,14-7.2,14-15.2v-302c0-8.8-7.2-14.8-16-14.8H18
	C10.4,28.4,4,33.6,4,41.6z"/>
<rect x="28" y="56.4" style="fill:#CDEEF9;" width="448" height="280"/>
<path style="fill:#3C8E51;" d="M200,122.4L126.8,196L92,162.4l-62.4,58.8c-0.4,0.4,0,111.2,0,111.2H476v-95.2l-75.6-75.6l-77.2,76.8
	L200,122.4z"/>
<path style="fill:#54B265;" d="M200,123.2l-73.2,73.6l138.4,135.6h157.6L200,123.2z"/>
<path style="fill:#E8BB85;" d="M92,162.8l-62.4,58.8c-0.4,0.4,0,111.2,0,111.2h237.6L92,162.8z"/>
<circle style="fill:#E9B526;" cx="316.4" cy="119.2" r="26.4"/>
<ellipse style="fill:#61C2AB;" cx="255.6" cy="359.6" rx="110" ry="110"/>
<g>
	<circle style="fill:#F4EFEF;" cx="280" cy="339.2" r="39.6"/>
	<path style="fill:#F4EFEF;" d="M288.4,317.2c-8.4-3.2-18.4-1.2-24.8,5.6c-9.2,9.2-9.2,24,0,33.2s24,9.2,33.2,0
		c6.4-6.4,8.4-16,5.6-24"/>
</g>
<path d="M256,475.6c-64,0-116-52-116-116s52-116,116-116s116,52,116,116S320,475.6,256,475.6z M256,252c-59.6,0-108,48.4-108,108
	s48.4,108,108,108s108-48.4,108-108C364,300,315.6,252,256,252z"/>
<path d="M280,382.8c-24,0-43.6-19.6-43.6-43.6s19.6-43.6,43.6-43.6s43.6,19.6,43.6,43.6S304,382.8,280,382.8z M280,304
	c-19.6,0-35.6,16-35.6,35.6s16,35.6,35.6,35.6s35.6-16,35.6-35.6S299.6,304,280,304z"/>
<path d="M205.2,417.6c-1.2,0-2-0.4-2.8-1.2c-1.6-1.6-1.6-4,0-5.6l45.2-45.2c1.6-1.6,4-1.6,5.6,0s1.6,4,0,5.6L208,416.4
	C207.2,417.2,206.4,417.6,205.2,417.6z"/>
<path d="M482,368.4H370c-2.4,0-4-1.6-4-4s1.6-4,4-4h112c6.4,0,10-3.6,10-10v-306c0-6.8-5.2-12-12-12H18c-6.8,0-10,3.2-10,10v308
	c0,6.4,3.6,10,10,10h124c2.4,0,4,1.6,4,4s-1.6,4-4,4H18c-10.8,0-18-7.2-18-18v-308c0-10.8,7.2-18,18-18h462c11.2,0,20,8.8,20,20v306
	C500,361.2,492.8,368.4,482,368.4z"/>
<path d="M144,340.4H28c-2.4,0-4-1.6-4-4v-280c0-2.4,1.6-4,4-4h388c2.4,0,4,1.6,4,4s-1.6,4-4,4H32v272h112c2.4,0,4,1.6,4,4
	S146.4,340.4,144,340.4z"/>
<path d="M472,340.4H368c-2.4,0-4-1.6-4-4s1.6-4,4-4h100v-272h-16c-2.4,0-4-1.6-4-4s1.6-4,4-4h20c2.4,0,4,1.6,4,4v280
	C476,338.4,474.4,340.4,472,340.4z"/>
<path d="M28,228.4c-1.2,0-2-0.4-2.8-1.2c-1.6-1.6-1.6-4,0-5.6l64-64.4c1.6-1.6,4-1.6,5.6,0s1.6,4,0,5.6l-64,64.4
	C30,228,29.2,228.4,28,228.4z"/>
<path d="M184,256.4c-1.2,0-2-0.4-2.8-1.2l-92-92c-1.6-1.6-1.6-4,0-5.6s4-1.6,5.6,0l92,92c1.6,1.6,1.6,4,0,5.6
	C186,256,185.2,256.4,184,256.4z"/>
<path d="M140,188.4c-1.2,0-2-0.4-2.8-1.2c-1.6-1.6-1.6-4,0-5.6l64-64c1.6-1.6,4-1.6,5.6,0s1.6,4,0,5.6l-64,64
	C142,188.4,141.2,188.4,140,188.4z"/>
<path d="M336,228.4c-1.2,0-2-0.4-2.8-1.2c-1.6-1.6-1.6-4,0-5.6l64.4-64.4c1.6-1.6,4-1.6,5.6,0s1.6,4,0,5.6l-64.4,64.4
	C338,228,337.2,228.4,336,228.4z"/>
<path d="M356.4,276.8c-1.2,0-2-0.4-2.8-1.2L201.2,123.2c-1.6-1.6-1.6-4,0-5.6s4-1.6,5.6,0L359.2,270c1.6,1.6,1.6,4,0,5.6
	C358.4,276.4,357.6,276.8,356.4,276.8z"/>
<path d="M470.8,238c-1.2,0-2-0.4-2.8-1.2l-70-74c-1.6-1.6-1.6-4,0-5.6s4-1.6,5.6,0l70,74c1.6,1.6,1.6,4,0,5.6
	C472.8,237.6,471.6,238,470.8,238z"/>
<path d="M316,148.8c-15.6,0-28-12.8-28-28c0-15.6,12.8-28,28-28c6,0,11.6,1.6,16.4,5.2c2,1.2,2.4,3.6,0.8,5.6
	c-1.2,2-3.6,2.4-5.6,0.8c-3.6-2.4-7.6-3.6-11.6-3.6c-11.2,0-20,9.2-20,20c0,11.2,9.2,20,20,20s20-9.2,20-20c0-2.4,1.6-4,4-4
	s4,1.6,4,4C344.4,136,331.6,148.8,316,148.8z"/>
</svg>